# xmcd
#
# Track frame offsets: 
#        150
#        15978
#        30607
#        48835
#        64776
#        89567
#        106970
#        124410
#        145939
#        166267
#        191395
#        212248
#
# Disc length: 3051 seconds
#
# Revision: 0
# Processed by: cddbd v1.5.2PL0 Copyright (c) Steve Scherf et al.
# Submitted via: ExactAudioCopy v1.3
#
DISCID=a10be90c
DTITLE=The Black Sorrows - Faithful Satellite
DYEAR=2016
DGENRE=Blues Rock
TTITLE0=I Love You Anyhow
TTITLE1=Raise Your Hands
TTITLE2=It Ain't Ever Gonna Happen
TTITLE3=Land of the Dead
TTITLE4=Cold Grey Moon
TTITLE5=Fix My Bail
TTITLE6=Carolina
TTITLE7=You Were Never Mine
TTITLE8=Winter Rose
TTITLE9=Love Is On Its Way
TTITLE10=Beat Nightmare
TTITLE11=Into Twilight
EXTD=
EXTT0=
EXTT1=
EXTT2=
EXTT3=
EXTT4=
EXTT5=
EXTT6=
EXTT7=
EXTT8=
EXTT9=
EXTT10=
EXTT11=
PLAYORDER=
